<svg xmlns="http://www.w3.org/2000/svg" viewBox="0 0 1600 1000" role="img" aria-label="Security products background">
  <defs>
    <linearGradient id="bg" x1="0" x2="1" y1="0" y2="1"><stop offset="0" stop-color="#230b0d"/><stop offset="0.42" stop-color="#7f1d1d"/><stop offset="1" stop-color="#111827"/></linearGradient>
    <radialGradient id="glow" cx="35%" cy="20%" r="65%"><stop offset="0" stop-color="#fca5a5" stop-opacity="0.45"/><stop offset="1" stop-color="#111827" stop-opacity="0"/></radialGradient>
    <filter id="shadow" x="-20%" y="-20%" width="140%" height="140%"><feDropShadow dx="0" dy="28" stdDeviation="24" flood-color="#000000" flood-opacity="0.28"/></filter>
  </defs>
  <rect width="1600" height="1000" fill="url(#bg)"/><rect width="1600" height="1000" fill="url(#glow)"/>
  <g opacity="0.16" stroke="#ffffff" stroke-width="2" fill="none"><path d="M0 720 C240 620 390 810 620 700 S1030 560 1600 660"/><path d="M0 850 C280 760 520 930 760 820 S1150 700 1600 800"/><path d="M220 0 v1000M500 0 v1000M780 0 v1000M1060 0 v1000M1340 0 v1000" opacity="0.35"/></g>
  <g filter="url(#shadow)" opacity="0.95">
    <g transform="translate(1010 130) rotate(-8)"><rect x="0" y="48" width="330" height="120" rx="34" fill="#f8fafc"/><rect x="232" y="75" width="90" height="66" rx="18" fill="#111827"/><circle cx="277" cy="108" r="24" fill="#1f2937"/><circle cx="277" cy="108" r="12" fill="#60a5fa"/><rect x="42" y="0" width="132" height="82" rx="24" fill="#e5e7eb"/><circle cx="108" cy="41" r="25" fill="#111827"/><circle cx="108" cy="41" r="11" fill="#60a5fa"/></g>
    <g transform="translate(885 520) rotate(7)"><rect width="430" height="190" rx="30" fill="#0f172a"/><rect x="30" y="32" width="250" height="126" rx="16" fill="#1e293b"/><g fill="#ef4444"><circle cx="322" cy="58" r="12"/><circle cx="362" cy="58" r="12"/><circle cx="322" cy="100" r="12"/><circle cx="362" cy="100" r="12"/></g><rect x="304" y="137" width="88" height="18" rx="9" fill="#64748b"/></g>
    <g transform="translate(1110 760) rotate(-5)"><rect width="220" height="132" rx="22" fill="#e5e7eb"/><circle cx="110" cy="66" r="44" fill="#cbd5e1"/><circle cx="110" cy="66" r="18" fill="#334155"/><path d="M36 28h148" stroke="#94a3b8" stroke-width="8" stroke-linecap="round"/></g>
    <g transform="translate(1260 360) rotate(8)"><rect x="36" y="0" width="116" height="162" rx="28" fill="#f8fafc"/><path d="M74 0v-34c0-42 40-68 80-48 21 11 33 33 33 57v25" fill="none" stroke="#e5e7eb" stroke-width="22" stroke-linecap="round"/><circle cx="94" cy="78" r="18" fill="#7f1d1d"/><rect x="84" y="92" width="20" height="38" rx="10" fill="#7f1d1d"/></g>
  </g>
  <g transform="translate(130 150)" opacity="0.92"><text x="0" y="0" fill="#ffffff" font-family="Arial, sans-serif" font-size="54" font-weight="800">RSA Admin</text><text x="0" y="48" fill="#fecaca" font-family="Arial, sans-serif" font-size="24" font-weight="700">Security catalog and lead management</text><rect x="0" y="82" width="340" height="6" rx="3" fill="#ef4444"/></g>
</svg>